PathFileType	4	(X/Y/Z)	 3.0Hz3min.trc
DataRate	CameraRate	NumFrames	NumMarkers	Units	OrigDataRate	OrigDataStartFrame	OrigNumFrames
200	200	8	35	m	200	501	1000
Frame#	Time	C7			LSH			RSH			MAN			RASI			LASI			HIPR			HIPL			RPSI			LPSI			COX			RTHI1			RTHI2			RTHI3			RTHI4			RSHA1			RSHA2			RSHA3			RSHA4			RHEEL			RMET5			RMET1			RTOE			LTHI1			LTHI2			LTHI3			LTHI4			LSHA1			LSHA2			LSHA3			LSHA4			LHEEL			LMET5			LMET1			LTOE			
		X1	Y1	Z1	X2	Y2	Z2	X3	Y3	Z3	X4	Y4	Z4	X5	Y5	Z5	X6	Y6	Z6	X7	Y7	Z7	X8	Y8	Z8	X9	Y9	Z9	X10	Y10	Z10	X11	Y11	Z11	X12	Y12	Z12	X13	Y13	Z13	X14	Y14	Z14	X15	Y15	Z15	X16	Y16	Z16	X17	Y17	Z17	X18	Y18	Z18	X19	Y19	Z19	X20	Y20	Z20	X21	Y21	Z21	X22	Y22	Z22	X23	Y23	Z23	X24	Y24	Z24	X25	Y25	Z25	X26	Y26	Z26	X27	Y27	Z27	X28	Y28	Z28	X29	Y29	Z29	X30	Y30	Z30	X31	Y31	Z31	X32	Y32	Z32	X33	Y33	Z33	X34	Y34	Z34	X35	Y35	Z35	
501	2.5050	-0.222473	1.348240	-0.515321	-0.175518	1.318717	-0.687739	-0.158052	1.305107	-0.342139	-0.107113	1.292113	-0.521281	-0.086316	0.895821	-0.439924	-0.083518	0.904776	-0.629602	-0.148945	0.945675	-0.395590	-0.135464	0.954140	-0.666048	-0.239024	0.932376	-0.472685	-0.236298	0.934275	-0.588791	-0.240642	0.943947	-0.531109	-0.200197	0.688688	-0.376071	-0.181671	0.632004	-0.369981	-0.121132	0.649072	-0.355038	-0.131652	0.709673	-0.358111	-0.251694	0.281791	-0.358637	-0.269640	0.245604	-0.360860	-0.219249	0.220072	-0.351427	-0.197153	0.256310	-0.351646	-0.344702	0.079950	-0.397135	-0.190912	0.026646	-0.339309	-0.161895	0.034225	-0.422384	-0.139077	0.027840	-0.413516	-0.168269	0.703883	-0.716282	-0.157783	0.643240	-0.720042	-0.093853	0.647392	-0.707797	-0.096978	0.706908	-0.702990	-0.268391	0.268428	-0.739877	-0.281326	0.226320	-0.737086	-0.230805	0.208700	-0.728608	-0.211272	0.244368	-0.730602	-0.364717	0.095543	-0.690426	-0.216516	0.027100	-0.759621	-0.185426	0.035562	-0.684521	-0.158541	0.027024	-0.693924	
502	2.5100	-0.222630	1.346784	-0.515507	-0.175786	1.316883	-0.688119	-0.158282	1.303262	-0.341984	-0.107106	1.290306	-0.521490	-0.085980	0.894067	-0.439917	-0.083300	0.903068	-0.629808	-0.148738	0.943371	-0.395224	-0.135468	0.951961	-0.666586	-0.238874	0.931118	-0.472553	-0.236231	0.932981	-0.588736	-0.240504	0.942858	-0.531054	-0.200842	0.687538	-0.376893	-0.182339	0.630811	-0.370602	-0.121998	0.648046	-0.354914	-0.132505	0.708615	-0.358112	-0.251783	0.280419	-0.358839	-0.269755	0.244255	-0.361059	-0.219362	0.218694	-0.351792	-0.197248	0.254939	-0.351947	-0.345063	0.078876	-0.397637	-0.191089	0.026633	-0.339344	-0.161893	0.034109	-0.422463	-0.139059	0.027816	-0.413517	-0.168474	0.702932	-0.716119	-0.158016	0.642280	-0.719911	-0.094038	0.646426	-0.707891	-0.097140	0.705938	-0.703084	-0.268361	0.267284	-0.739277	-0.281352	0.225195	-0.736391	-0.230857	0.207513	-0.727806	-0.211282	0.243164	-0.729859	-0.365036	0.094499	-0.689455	-0.216671	0.027086	-0.759419	-0.185380	0.035390	-0.684297	-0.158452	0.026973	-0.693912	
503	2.5150	-0.222810	1.345798	-0.515689	-0.176014	1.315483	-0.688498	-0.158519	1.301846	-0.341870	-0.107257	1.288983	-0.521676	-0.085610	0.892864	-0.439946	-0.083033	0.902032	-0.629914	-0.148178	0.941626	-0.394802	-0.135393	0.950553	-0.666978	-0.238631	0.930452	-0.472354	-0.236033	0.932361	-0.588490	-0.240318	0.942294	-0.530896	-0.201356	0.686877	-0.377749	-0.182903	0.630106	-0.371277	-0.122731	0.647448	-0.354910	-0.133203	0.708000	-0.358238	-0.251852	0.279553	-0.359139	-0.269836	0.243382	-0.361404	-0.219434	0.217830	-0.352202	-0.197310	0.254082	-0.352307	-0.345261	0.078173	-0.398173	-0.191237	0.026638	-0.339431	-0.161815	0.033979	-0.422577	-0.139003	0.027790	-0.413536	-0.168573	0.702411	-0.715907	-0.158143	0.641742	-0.719696	-0.094124	0.645890	-0.707863	-0.097201	0.705396	-0.703088	-0.268365	0.266605	-0.738532	-0.281384	0.224503	-0.735562	-0.230888	0.206803	-0.726988	-0.211293	0.242444	-0.729096	-0.365148	0.093824	-0.688361	-0.216812	0.027099	-0.759164	-0.185258	0.035249	-0.684084	-0.158316	0.026926	-0.693911	
504	2.5200	-0.223014	1.345290	-0.515869	-0.176203	1.314551	-0.688869	-0.158766	1.300897	-0.341805	-0.107476	1.288229	-0.521827	-0.085210	0.892257	-0.439992	-0.082717	0.901683	-0.629920	-0.147692	0.940832	-0.394392	-0.135224	0.949992	-0.667190	-0.238309	0.930329	-0.472104	-0.235737	0.932352	-0.588092	-0.240117	0.942197	-0.530661	-0.201723	0.686696	-0.378547	-0.183321	0.629892	-0.371947	-0.123283	0.647257	-0.355013	-0.133703	0.707819	-0.358455	-0.251921	0.279184	-0.359549	-0.269889	0.243012	-0.361863	-0.219477	0.217462	-0.352658	-0.197363	0.253728	-0.352716	-0.345299	0.077827	-0.398748	-0.191355	0.026657	-0.339565	-0.161667	0.033837	-0.422723	-0.138918	0.027762	-0.413573	-0.168555	0.702314	-0.715667	-0.158162	0.641630	-0.719415	-0.094113	0.645769	-0.707705	-0.097155	0.705276	-0.702997	-0.268442	0.266351	-0.737667	-0.281451	0.224255	-0.734659	-0.230937	0.206560	-0.726198	-0.211342	0.242200	-0.728355	-0.365073	0.093524	-0.687202	-0.216938	0.027137	-0.758871	-0.185076	0.035138	-0.683886	-0.158152	0.026882	-0.693914	
505	2.5250	-0.223248	1.345259	-0.516047	-0.176361	1.314115	-0.689223	-0.159025	1.300449	-0.341786	-0.107730	1.288042	-0.521957	-0.084790	0.892249	-0.440024	-0.082351	0.902002	-0.629841	-0.146828	0.940854	-0.394083	-0.134948	0.950286	-0.667201	-0.237921	0.930688	-0.471826	-0.235360	0.932866	-0.587594	-0.239878	0.942532	-0.530363	-0.201929	0.686977	-0.379241	-0.183571	0.630136	-0.372596	-0.123635	0.647462	-0.355216	-0.133981	0.708051	-0.358725	-0.251996	0.279292	-0.360047	-0.269927	0.243123	-0.362425	-0.219508	0.217579	-0.353138	-0.197416	0.253857	-0.353169	-0.345181	0.077858	-0.399340	-0.191440	0.026692	-0.339736	-0.161497	0.033714	-0.422864	-0.138808	0.027736	-0.413636	-0.168424	0.702647	-0.715414	-0.158080	0.641955	-0.719084	-0.094017	0.646057	-0.707425	-0.097006	0.705576	-0.702811	-0.268609	0.266516	-0.736728	-0.281563	0.224424	-0.733717	-0.231014	0.206770	-0.725474	-0.211455	0.242411	-0.727664	-0.364832	0.093587	-0.686045	-0.217045	0.027200	-0.758546	-0.184852	0.035056	-0.683702	-0.157977	0.026837	-0.693912	
506	2.5300	-0.223520	1.345695	-0.516223	-0.176492	1.314197	-0.689552	-0.159296	1.300524	-0.341811	-0.108010	1.288418	-0.522070	-0.084353	0.892819	-0.440014	-0.081934	0.902930	-0.629692	-0.145888	0.941794	-0.393799	-0.134571	0.951373	-0.667004	-0.237474	0.931485	-0.471542	-0.234896	0.933824	-0.587062	-0.239540	0.943272	-0.530014	-0.201970	0.687695	-0.379802	-0.183652	0.630808	-0.373201	-0.123782	0.648050	-0.355492	-0.134029	0.708680	-0.359020	-0.252090	0.279834	-0.360621	-0.269955	0.243657	-0.363047	-0.219532	0.218156	-0.353626	-0.197473	0.254445	-0.353651	-0.344929	0.078270	-0.399892	-0.191492	0.026744	-0.339938	-0.161312	0.033612	-0.423000	-0.138677	0.027708	-0.413723	-0.168193	0.703412	-0.715158	-0.157916	0.642712	-0.718726	-0.093852	0.646755	-0.707045	-0.096767	0.706294	-0.702542	-0.268857	0.267077	-0.735768	-0.281722	0.224980	-0.732780	-0.231114	0.207412	-0.724842	-0.211628	0.243067	-0.727055	-0.364437	0.094010	-0.684943	-0.217128	0.027285	-0.758201	-0.184598	0.035004	-0.683540	-0.157798	0.026793	-0.693904	
507	2.5350	-0.223832	1.346593	-0.516398	-0.176604	1.314803	-0.689850	-0.159578	1.301132	-0.341881	-0.108284	1.289339	-0.522181	-0.083892	0.893937	-0.439948	-0.081464	0.904404	-0.629491	-0.144944	0.943341	-0.393636	-0.134096	0.953140	-0.666623	-0.236969	0.932671	-0.471276	-0.234395	0.935198	-0.586622	-0.239138	0.944390	-0.529674	-0.201822	0.688822	-0.380274	-0.183572	0.631902	-0.373736	-0.123729	0.649009	-0.355832	-0.133862	0.709678	-0.359324	-0.252195	0.280767	-0.361232	-0.269979	0.244569	-0.363703	-0.219532	0.219137	-0.354105	-0.197526	0.255456	-0.354143	-0.344548	0.079042	-0.400386	-0.191505	0.026818	-0.340170	-0.161121	0.033534	-0.423126	-0.138534	0.027681	-0.413830	-0.167878	0.704612	-0.714906	-0.157693	0.643896	-0.718356	-0.093641	0.647848	-0.706596	-0.096460	0.707409	-0.702208	-0.269173	0.268000	-0.734842	-0.281909	0.225893	-0.731902	-0.231224	0.208450	-0.724312	-0.211845	0.244138	-0.726539	-0.363908	0.094767	-0.683933	-0.217182	0.027392	-0.757846	-0.184329	0.034982	-0.683396	-0.157626	0.026752	-0.693883	
508	2.5400	-0.224183	1.347928	-0.516569	-0.176704	1.315912	-0.690114	-0.159871	1.302273	-0.341953	-0.108559	1.290776	-0.522289	-0.083402	0.895544	-0.439818	-0.080938	0.906348	-0.629244	-0.144072	0.945330	-0.393511	-0.133534	0.955445	-0.666102	-0.236400	0.934225	-0.471043	-0.233845	0.936924	-0.586281	-0.238667	0.945853	-0.529370	-0.201529	0.690347	-0.380602	-0.183360	0.633393	-0.374189	-0.123499	0.650317	-0.356208	-0.133503	0.711035	-0.359621	-0.252307	0.282024	-0.361853	-0.269983	0.245803	-0.364330	-0.219498	0.220485	-0.354567	-0.197567	0.256838	-0.354622	-0.344048	0.080155	-0.400808	-0.191475	0.026912	-0.340428	-0.160930	0.033481	-0.423243	-0.138385	0.027654	-0.413954	-0.167497	0.706226	-0.714659	-0.157434	0.645493	-0.717989	-0.093400	0.649310	-0.706112	-0.096096	0.708899	-0.701830	-0.269515	0.269249	-0.733999	-0.282087	0.227141	-0.731124	-0.231313	0.209857	-0.723893	-0.212070	0.245598	-0.726129	-0.363258	0.095841	-0.683062	-0.217199	0.027521	-0.757496	-0.184052	0.034985	-0.683272	-0.157468	0.026713	-0.693851	
